PathFileType	4	(X/Y/Z)	C:\Users\chris\Documents\GitHub\baseballds\vids\pitch5_Sports2D\pitch5_Sports2D_px_person04.trc
DataRate	CameraRate	NumFrames	NumMarkers	Units	OrigDataRate	OrigDataStartFrame	OrigNumFrames
30	30	5	22	m	30	0	149
Frame#	Time	Hip			RHip			RKnee			RAnkle			RBigToe			RSmallToe			RHeel			LHip			LKnee			LAnkle			LBigToe			LSmallToe			LHeel			Neck			Head			Nose			RShoulder			RElbow			RWrist			LShoulder			LElbow			LWrist		
		X1	Y1	Z1	X2	Y2	Z2	X3	Y3	Z3	X4	Y4	Z4	X5	Y5	Z5	X6	Y6	Z6	X7	Y7	Z7	X8	Y8	Z8	X9	Y9	Z9	X10	Y10	Z10	X11	Y11	Z11	X12	Y12	Z12	X13	Y13	Z13	X14	Y14	Z14	X15	Y15	Z15	X16	Y16	Z16	X17	Y17	Z17	X18	Y18	Z18	X19	Y19	Z19	X20	Y20	Z20	X21	Y21	Z21	X22	Y22	Z22
0	0.0	1259.9750675107705	415.55458022311035	0.0	1257.5413935534114	413.15838107908087	0.0	1246.7345579625887	420.49270890194396	0.0	1238.2968597527054	435.02396099127037	0.0	1240.7242883583936	438.6442820730606	0.0	1244.29256428392	441.04672762205234	0.0	1239.4855924423075	439.8330139082552	0.0	1260.0187861564284	415.5670717491108	0.0	1252.8239443976431	424.1047018196087	0.0	1248.0065661751144	435.0322871465274	0.0	1253.9981082588542	442.2521129869857	0.0	1251.6185614028625	436.2459997794544	0.0	1243.1891860037606	437.4409773822774	0.0	1261.2429120107506	400.9171554841778	0.0	1269.6618816059147	390.01247186553314	0.0	1269.6826968897838	394.8798164732343	0.0	1250.4194180733389	397.34887711074634	0.0	1230.0735827103674	404.6394810036526	0.0	1251.7413919594583	413.0646893105017	0.0	1270.8568567506381	399.75340626666946	0.0	1257.6954559190156	411.81767617052105	0.0	1267.3447936672885	417.84044131338294	0.0
1	0.03333333333333333	1258.5140434080658	416.3170782059036	0.0	1256.068201703401	414.2038920675642	0.0	1246.3462197844844	421.83733677986277	0.0	1238.4970450099584	435.8842838382383	0.0	1240.8873995224599	439.28515971176375	0.0	1243.8260933291888	441.45376001244824	0.0	1239.4703938415132	440.25854106400243	0.0	1258.9022306803804	416.4279603072051	0.0	1252.507171987636	425.1642927089564	0.0	1248.0589063357372	435.9582697344673	0.0	1253.350959795274	442.5750695534489	0.0	1251.3857654702178	437.1535119149212	0.0	1243.6107064536232	438.18236922050255	0.0	1260.1897489133164	401.327342795694	0.0	1267.872190134995	390.73663290715007	0.0	1268.057185120383	395.62846601671	0.0	1250.3200130385792	398.38875617774227	0.0	1232.5519905442502	405.6342890313452	0.0	1252.4763091108584	413.37241715934863	0.0	1268.9011945651805	400.57575689234267	0.0	1257.4358068348909	411.88106927152955	0.0	1266.4613724813962	417.45064972082355	0.0
2	0.06666666666666667	1257.0532284435487	417.079469285728	0.0	1254.5952194805686	415.24925574101235	0.0	1245.957936922969	423.1817745460816	0.0	1238.6972017651788	436.7444873170575	0.0	1241.0504916962846	439.9259479394236	0.0	1243.3596951361403	441.8607373211257	0.0	1239.4551987613636	440.68401066930545	0.0	1257.785834655575	417.2887289993164	0.0	1252.1904450611726	426.22373389311167	0.0	1248.1112388598392	436.88412331019947	0.0	1252.7039074087581	442.8979835255774	0.0	1251.1530037467694	438.06089932339546	0.0	1244.0321667261994	438.923657751939	0.0	1259.1367380869608	401.7374735833138	0.0	1266.0827649012185	391.46069248245897	0.0	1266.4319124921196	396.3770097988474	0.0	1250.220625451826	399.42848492240745	0.0	1235.030059368741	406.62894423956016	0.0	1253.2111215162097	413.68010087926314	0.0	1266.9458135243954	401.3979914640138	0.0	1257.1761999474206	411.9444539398731	0.0	1265.5780893820756	417.0609083219139	0.0
3	0.1	1255.5944712522914	417.84203767237665	0.0	1253.1240233620506	416.294296131648	0.0	1245.5698293627051	424.5255224128756	0.0	1238.8971427577735	437.6049962218391	0.0	1241.2138708459286	440.5672615747522	0.0	1242.8948167969602	442.2688256436767	0.0	1239.4404435772176	441.110520363437	0.0	1256.670843244308	418.1496119836006	0.0	1251.8739091675584	427.2827406009334	0.0	1248.1634470721121	437.80996080966554	0.0	1252.0586356990466	443.2220692531647	0.0	1250.9207926058352	438.96824059844573	0.0	1244.452902102309	439.6652325515737	0.0	1258.0855943903803	402.1485799251408	0.0	1264.2974702595654	392.1852662261641	0.0	1264.8098359868104	397.12596249624744	0.0	1250.1211926919912	400.4674918911543	0.0	1237.5036469768609	407.62197141936184	0.0	1253.9449864193682	413.9873223978532	0.0	1264.9942585020626	402.2204256493627	0.0	1256.9173463029115	412.0093951914678	0.0	1264.6975386122722	416.6730777822504	0.0
4	0.13333333333333333	1254.1395889948312	418.6049333255714	0.0	1251.656195883709	417.3387202379856	0.0	1245.1820518563832	425.8679637378185	0.0	1239.0966769266927	438.46606682711433	0.0	1241.3777701372223	441.2095582386728	0.0	1242.43277321184	442.6789963568887	0.0	1239.4265115014916	441.53897780482697	0.0	1255.5584980999263	419.0106981410479	0.0	1251.5577313031017	428.3409231985403	0.0	1248.2154217371613	438.73575496272963	0.0	1251.4167029264331	443.5483492186266	0.0	1250.6896145912915	439.8754733286264	0.0	1244.8722711149248	440.4073371707607	0.0	1257.037960377138	402.561518128267	0.0	1262.5199087237306	392.9108029276821	0.0	1263.19374854639	397.87568371048206	0.0	1250.0216577136757	401.5051500840701	0.0	1239.9687118046506	408.61198522662175	0.0	1254.6770651312604	414.2936738515724	0.0	1263.0499061615644	403.0432324991388	0.0	1256.6598868876895	412.07727070068927	0.0	1263.822079392604	416.28887941680784	0.0
